<svg width="575" height="192" viewBox="0 0 575 192" fill="none" xmlns="http://www.w3.org/2000/svg">
<g clip-path="url(#clip0_3225_28)">
<path d="M528.645 0H45.766C44.006 0 42.266 0 40.511 0.01C39.041 0.02 37.584 0.047 36.1 0.071C32.8768 0.108842 29.6611 0.39233 26.481 0.919C23.3055 1.45733 20.2295 2.4721 17.357 3.929C14.4882 5.39795 11.8668 7.3067 9.588 9.586C7.29729 11.8591 5.38782 14.4864 3.933 17.367C2.47404 20.242 1.46239 23.3228 0.933 26.503C0.3986 29.6793 0.111073 32.8923 0.073 36.113C0.028 37.585 0.023 39.061 0 40.533V151.481C0.023 152.971 0.028 154.415 0.073 155.906C0.111121 159.126 0.398647 162.339 0.933 165.515C1.46089 168.697 2.4726 171.78 3.933 174.656C5.38761 177.526 7.29733 180.141 9.588 182.4C11.8581 184.69 14.4812 186.6 17.357 188.058C20.2295 189.519 23.3051 190.539 26.481 191.086C29.6617 191.609 32.877 191.892 36.1 191.935C37.584 191.968 39.041 191.986 40.511 191.986C42.266 191.996 44.006 191.996 45.766 191.996H528.645C530.37 191.996 532.123 191.996 533.845 191.986C535.308 191.986 536.808 191.967 538.27 191.935C541.487 191.895 544.696 191.611 547.87 191.086C551.056 190.536 554.143 189.515 557.029 188.058C559.905 186.6 562.529 184.69 564.8 182.4C567.085 180.131 569 177.516 570.472 174.651C571.922 171.773 572.924 168.69 573.444 165.51C573.979 162.334 574.277 159.122 574.335 155.901C574.354 154.41 574.354 152.966 574.354 151.476C574.391 149.732 574.391 147.998 574.391 146.226V45.774C574.391 44.016 574.391 42.274 574.354 40.533C574.354 39.061 574.354 37.585 574.335 36.113C574.277 32.892 573.979 29.6797 573.444 26.503C572.922 23.3246 571.92 20.244 570.472 17.367C567.508 11.5922 562.808 6.89214 557.033 3.928C554.147 2.47468 551.06 1.46018 547.874 0.918C544.701 0.3891 541.491 0.105594 538.274 0.07C536.811 0.047 535.311 0.018 533.849 0.009C532.123 0 530.37 0 528.645 0Z" fill="#A6A6A6"/>
<path d="M40.535 187.8C39.073 187.8 37.645 187.781 36.194 187.749C33.1881 187.71 30.1892 187.448 27.222 186.966C24.4553 186.489 21.7752 185.603 19.27 184.336C16.7875 183.079 14.5232 181.432 12.564 179.456C10.5762 177.505 8.92104 175.242 7.66399 172.756C6.39395 170.253 5.51508 167.57 5.05799 164.801C4.56391 161.826 4.29648 158.817 4.25799 155.801C4.22799 154.789 4.18799 151.418 4.18799 151.418V40.534C4.18799 40.534 4.22999 37.215 4.25899 36.24C4.29574 33.2288 4.5615 30.2248 5.05399 27.254C5.51254 24.4772 6.39269 21.7869 7.66399 19.276C8.91547 16.7912 10.5607 14.5253 12.536 12.566C14.5092 10.5881 16.7805 8.93194 19.267 7.65799C21.7666 6.395 24.4418 5.51483 27.203 5.04699C30.1791 4.56039 33.1876 4.29733 36.203 4.25999L40.537 4.20099H533.824L538.207 4.26199C541.196 4.29738 544.177 4.55812 547.127 5.04199C549.916 5.51575 552.619 6.40214 555.147 7.67199C560.129 10.2393 564.182 14.3011 566.739 19.288C567.99 21.7817 568.856 24.4502 569.308 27.203C569.806 30.1983 570.085 33.226 570.142 36.262C570.156 37.621 570.156 39.082 570.156 40.535C570.194 42.335 570.194 44.048 570.194 45.776V146.232C570.194 147.976 570.194 149.677 570.156 151.393C570.156 152.954 570.156 154.384 570.137 155.856C570.081 158.839 569.807 161.813 569.317 164.756C568.869 167.545 567.995 170.249 566.725 172.772C565.46 175.231 563.815 177.476 561.85 179.423C559.889 181.407 557.621 183.063 555.134 184.326C552.613 185.603 549.914 186.492 547.128 186.965C544.161 187.45 541.162 187.711 538.156 187.748C536.75 187.781 535.278 187.799 533.849 187.799L528.649 187.809L40.535 187.8Z" fill="black"/>
<path d="M118.891 97.444C118.942 93.4377 120.006 89.5096 121.984 86.025C123.961 82.5404 126.788 79.6126 130.201 77.514C128.033 74.4171 125.172 71.8686 121.846 70.0707C118.521 68.2728 114.822 67.2752 111.043 67.157C102.983 66.311 95.169 71.98 91.061 71.98C86.874 71.98 80.55 67.241 73.74 67.38C69.3352 67.5226 65.0424 68.8037 61.28 71.0986C57.5176 73.3935 54.4137 76.6239 52.271 80.475C42.991 96.547 49.912 120.168 58.805 133.16C63.254 139.522 68.454 146.628 75.258 146.376C81.916 146.1 84.402 142.131 92.439 142.131C100.401 142.131 102.734 146.376 109.676 146.216C116.82 146.1 121.321 139.826 125.614 133.404C128.811 128.871 131.27 123.861 132.902 118.56C128.752 116.804 125.21 113.866 122.718 110.111C120.227 106.356 118.896 101.95 118.891 97.444Z" fill="white"/>
<path d="M105.778 58.613C109.673 53.9368 111.593 47.9264 111.128 41.858C105.176 42.4826 99.6771 45.3268 95.728 49.824C93.7976 52.0208 92.3191 54.5765 91.3771 57.3451C90.4351 60.1137 90.048 63.0407 90.238 65.959C93.2153 65.9902 96.1608 65.3453 98.8526 64.0728C101.544 62.8003 103.912 60.9335 105.778 58.613Z" fill="white"/>
<path d="M203.05 130.271H180.33L174.874 146.382H165.25L186.77 86.776H196.77L218.29 146.382H208.502L203.05 130.271ZM182.683 122.837H200.693L191.814 96.69H191.566L182.683 122.837Z" fill="white"/>
<path d="M264.765 124.656C264.765 138.156 257.537 146.837 246.629 146.837C243.866 146.982 241.119 146.346 238.7 145.002C236.282 143.658 234.292 141.66 232.956 139.237H232.75V160.759H223.83V102.925H232.464V110.153H232.628C234.024 107.741 236.049 105.753 238.485 104.4C240.922 103.047 243.679 102.38 246.465 102.47C257.498 102.47 264.765 111.189 264.765 124.656ZM255.596 124.656C255.596 115.856 251.049 110.073 244.112 110.073C237.296 110.073 232.712 115.979 232.712 124.656C232.712 133.412 237.296 139.276 244.112 139.276C251.05 139.276 255.598 133.534 255.598 124.656H255.596Z" fill="white"/>
<path d="M312.596 124.656C312.596 138.156 305.368 146.837 294.46 146.837C291.697 146.982 288.95 146.346 286.531 145.002C284.113 143.658 282.123 141.66 280.787 139.237H280.581V160.759H271.664V102.925H280.294V110.153H280.458C281.855 107.741 283.879 105.753 286.315 104.4C288.752 103.047 291.509 102.38 294.295 102.47C305.326 102.47 312.596 111.189 312.596 124.656ZM303.427 124.656C303.427 115.856 298.88 110.073 291.943 110.073C285.127 110.073 280.543 115.979 280.543 124.656C280.543 133.412 285.127 139.276 291.943 139.276C298.881 139.276 303.427 133.534 303.427 124.656Z" fill="white"/>
<path d="M344.208 129.774C344.869 135.685 350.608 139.566 358.458 139.566C365.977 139.566 371.386 135.685 371.386 130.355C371.386 125.728 368.124 122.955 360.399 121.055L352.674 119.194C341.729 116.555 336.648 111.437 336.648 103.13C336.648 92.846 345.61 85.782 358.337 85.782C370.937 85.782 379.567 92.846 379.857 103.13H370.857C370.318 97.182 365.401 93.591 358.215 93.591C351.029 93.591 346.115 97.224 346.115 102.511C346.115 106.725 349.256 109.205 356.938 111.103L363.505 112.716C375.735 115.608 380.816 120.516 380.816 129.239C380.816 140.391 371.933 147.375 357.805 147.375C344.586 147.375 335.661 140.555 335.085 129.775L344.208 129.774Z" fill="white"/>
<path d="M400.06 92.64V102.924H408.324V109.988H400.06V133.946C400.06 137.668 401.715 139.402 405.348 139.402C406.329 139.385 407.308 139.316 408.282 139.196V146.218C406.649 146.523 404.988 146.662 403.327 146.631C394.527 146.631 391.097 143.331 391.097 134.898V109.988H384.779V102.924H391.098V92.64H400.06Z" fill="white"/>
<path d="M413.11 124.659C413.11 110.986 421.163 102.393 433.721 102.393C446.321 102.393 454.337 110.985 454.337 124.659C454.337 138.37 446.364 146.925 433.721 146.925C421.078 146.925 413.11 138.366 413.11 124.659ZM445.247 124.659C445.247 115.279 440.947 109.743 433.72 109.743C426.493 109.743 422.199 115.318 422.199 124.659C422.199 134.076 426.493 139.57 433.721 139.57C440.949 139.57 445.245 134.073 445.245 124.659H445.247Z" fill="white"/>
<path d="M461.691 102.924H470.199V110.324H470.405C470.98 108.014 472.334 105.972 474.237 104.542C476.141 103.112 478.479 102.381 480.858 102.472C481.886 102.469 482.911 102.58 483.914 102.805V111.146C482.616 110.749 481.262 110.567 479.906 110.607C478.61 110.554 477.317 110.782 476.117 111.275C474.917 111.769 473.838 112.517 472.955 113.467C472.071 114.417 471.404 115.547 470.998 116.78C470.593 118.012 470.459 119.318 470.606 120.607V146.382H461.686L461.691 102.924Z" fill="white"/>
<path d="M525.043 133.618C523.843 141.507 516.16 146.918 506.331 146.918C493.689 146.918 485.842 138.448 485.842 124.859C485.842 111.228 493.731 102.387 505.956 102.387C517.979 102.387 525.54 110.646 525.54 123.823V126.879H494.846V127.418C494.704 129.017 494.905 130.629 495.433 132.145C495.962 133.661 496.808 135.047 497.913 136.211C499.019 137.375 500.36 138.291 501.847 138.897C503.334 139.503 504.932 139.786 506.537 139.727C508.645 139.925 510.76 139.436 512.569 138.335C514.377 137.233 515.781 135.578 516.573 133.614L525.043 133.618ZM494.888 120.648H516.615C516.695 119.21 516.477 117.771 515.975 116.421C515.472 115.071 514.696 113.84 513.695 112.804C512.695 111.768 511.49 110.951 510.159 110.402C508.827 109.854 507.396 109.587 505.956 109.618C504.503 109.609 503.063 109.888 501.719 110.439C500.375 110.99 499.153 111.801 498.124 112.827C497.095 113.852 496.279 115.071 495.724 116.414C495.169 117.756 494.884 119.195 494.888 120.648Z" fill="white"/>
<path d="M181.565 41.909C183.435 41.7747 185.312 42.0571 187.06 42.7359C188.807 43.4147 190.383 44.473 191.672 45.8344C192.961 47.1958 193.932 48.8264 194.515 50.6085C195.098 52.3906 195.278 54.2799 195.042 56.14C195.042 65.29 190.097 70.55 181.565 70.55H171.22V41.909H181.565ZM175.665 66.499H181.065C182.401 66.5796 183.739 66.361 184.98 65.8591C186.222 65.3573 187.335 64.5848 188.24 63.598C189.145 62.6112 189.818 61.4349 190.211 60.1549C190.604 58.8749 190.706 57.5235 190.51 56.199C190.692 54.8797 190.579 53.5366 190.181 52.2659C189.782 50.9952 189.108 49.8283 188.205 48.849C187.303 47.8696 186.195 47.102 184.961 46.6012C183.727 46.1003 182.398 45.8786 181.068 45.952H175.668L175.665 66.499Z" fill="white"/>
<path d="M200.067 59.734C199.932 58.314 200.095 56.8815 200.546 55.5283C200.997 54.1751 201.725 52.931 202.685 51.8757C203.645 50.8205 204.814 49.9774 206.119 49.4004C207.423 48.8235 208.834 48.5255 210.26 48.5255C211.686 48.5255 213.097 48.8235 214.401 49.4004C215.706 49.9774 216.875 50.8205 217.835 51.8757C218.795 52.931 219.523 54.1751 219.974 55.5283C220.425 56.8815 220.588 58.314 220.453 59.734C220.591 61.1557 220.43 62.5905 219.981 63.9464C219.532 65.3022 218.803 66.5491 217.844 67.6068C216.884 68.6645 215.713 69.5097 214.407 70.0881C213.101 70.6666 211.688 70.9654 210.26 70.9654C208.832 70.9654 207.419 70.6666 206.113 70.0881C204.807 69.5097 203.636 68.6645 202.676 67.6068C201.717 66.5491 200.988 65.3022 200.539 63.9464C200.09 62.5905 199.929 61.1557 200.067 59.734ZM216.067 59.734C216.067 55.049 213.967 52.309 210.267 52.309C206.567 52.309 204.473 55.049 204.473 59.734C204.473 64.457 206.559 67.175 210.267 67.175C213.975 67.175 216.067 64.437 216.067 59.734Z" fill="white"/>
<path d="M247.551 70.55H243.126L238.663 54.631H238.326L233.873 70.55H229.49L223.532 48.936H227.863L231.735 65.429H232.054L236.493 48.936H240.585L245.029 65.429H245.363L249.216 48.936H253.482L247.551 70.55Z" fill="white"/>
<path d="M258.497 48.935H262.603V52.369H262.922C263.463 51.1357 264.375 50.1018 265.531 49.4115C266.687 48.7212 268.03 48.4089 269.372 48.518C270.424 48.439 271.48 48.5976 272.462 48.9821C273.444 49.3666 274.327 49.9671 275.045 50.7391C275.763 51.5111 276.299 52.4349 276.612 53.442C276.925 54.4491 277.007 55.5137 276.853 56.557V70.549H272.587V57.628C272.587 54.155 271.078 52.428 267.923 52.428C267.209 52.3947 266.496 52.5162 265.834 52.7842C265.171 53.0521 264.574 53.4602 264.084 53.9804C263.594 54.5006 263.222 55.1207 262.994 55.7981C262.765 56.4755 262.686 57.1942 262.762 57.905V70.549H258.497V48.935Z" fill="white"/>
<path d="M283.65 40.498H287.916V70.549H283.65V40.498Z" fill="white"/>
<path d="M293.845 59.733C293.708 58.312 293.87 56.8782 294.321 55.5235C294.771 54.1689 295.499 52.9233 296.459 51.8667C297.419 50.8101 298.589 49.9658 299.894 49.3881C301.2 48.8104 302.611 48.512 304.039 48.512C305.466 48.512 306.878 48.8104 308.184 49.3881C309.489 49.9658 310.659 50.8101 311.619 51.8667C312.579 52.9233 313.307 54.1689 313.757 55.5235C314.208 56.8782 314.37 58.312 314.233 59.733C314.371 61.1548 314.21 62.5898 313.761 63.9458C313.311 65.3017 312.583 66.5487 311.623 67.6065C310.663 68.6644 309.493 69.5096 308.186 70.0881C306.88 70.6666 305.468 70.9654 304.039 70.9654C302.61 70.9654 301.198 70.6666 299.892 70.0881C298.585 69.5096 297.415 68.6644 296.455 67.6065C295.495 66.5487 294.767 65.3017 294.317 63.9458C293.868 62.5898 293.707 61.1548 293.845 59.733ZM309.845 59.733C309.845 55.048 307.745 52.308 304.045 52.308C300.345 52.308 298.251 55.048 298.251 59.733C298.251 64.456 300.337 67.174 304.045 67.174C307.753 67.174 309.845 64.436 309.845 59.733Z" fill="white"/>
<path d="M318.722 64.437C318.722 60.546 321.622 58.303 326.761 57.985L332.616 57.648V55.781C332.616 53.498 331.107 52.209 328.191 52.209C325.81 52.209 324.16 53.083 323.691 54.609H319.561C319.997 50.897 323.489 48.515 328.392 48.515C333.811 48.515 336.867 51.215 336.867 55.778V70.549H332.757V67.51H332.422C331.738 68.601 330.776 69.4907 329.635 70.0881C328.494 70.6855 327.215 70.9691 325.928 70.91C325.021 71.0037 324.104 70.9064 323.237 70.6243C322.37 70.3422 321.572 69.8816 320.893 69.2722C320.215 68.6628 319.672 67.918 319.299 67.0859C318.926 66.2538 318.732 65.3528 318.728 64.441L318.722 64.437ZM332.617 62.59V60.783L327.339 61.12C324.362 61.32 323.012 62.332 323.012 64.237C323.012 66.182 324.699 67.314 327.02 67.314C327.7 67.3826 328.387 67.3138 329.04 67.1117C329.693 66.9097 330.298 66.5784 330.821 66.1376C331.343 65.6969 331.772 65.1556 332.081 64.546C332.39 63.9364 332.573 63.2709 332.62 62.589L332.617 62.59Z" fill="white"/>
<path d="M342.47 59.733C342.47 52.903 345.981 48.577 351.442 48.577C352.793 48.5147 354.133 48.8383 355.307 49.5098C356.481 50.1813 357.439 51.173 358.07 52.369H358.389V40.498H362.655V70.549H358.567V67.135H358.229C357.549 68.323 356.558 69.3024 355.361 69.9671C354.165 70.6318 352.81 70.9565 351.442 70.906C345.944 70.906 342.47 66.579 342.47 59.733ZM346.876 59.733C346.876 64.317 349.037 67.076 352.651 67.076C356.251 67.076 358.468 64.276 358.468 59.752C358.468 55.252 356.223 52.409 352.651 52.409C349.06 52.409 346.876 55.186 346.876 59.733Z" fill="white"/>
<path d="M380.303 59.733C380.168 58.313 380.331 56.8805 380.782 55.5273C381.233 54.1741 381.961 52.93 382.921 51.8747C383.881 50.8195 385.05 49.9764 386.355 49.3994C387.659 48.8225 389.07 48.5245 390.496 48.5245C391.922 48.5245 393.333 48.8225 394.637 49.3994C395.942 49.9764 397.111 50.8195 398.071 51.8747C399.031 52.93 399.759 54.1741 400.21 55.5273C400.661 56.8805 400.824 58.313 400.689 59.733C400.827 61.1547 400.666 62.5895 400.217 63.9454C399.768 65.3012 399.039 66.548 398.08 67.6058C397.12 68.6635 395.949 69.5087 394.643 70.0871C393.337 70.6655 391.924 70.9643 390.496 70.9643C389.068 70.9643 387.655 70.6655 386.349 70.0871C385.043 69.5087 383.872 68.6635 382.912 67.6058C381.953 66.548 381.224 65.3012 380.775 63.9454C380.326 62.5895 380.165 61.1547 380.303 59.733ZM396.303 59.733C396.303 55.048 394.203 52.308 390.503 52.308C386.803 52.308 384.709 55.048 384.709 59.733C384.709 64.456 386.795 67.174 390.503 67.174C394.211 67.174 396.303 64.437 396.303 59.733Z" fill="white"/>
<path d="M406.412 48.935H410.518V52.369H410.837C411.378 51.1357 412.29 50.1018 413.446 49.4115C414.602 48.7212 415.945 48.4089 417.287 48.518C418.339 48.439 419.395 48.5976 420.377 48.9821C421.359 49.3666 422.242 49.9671 422.96 50.7391C423.678 51.5111 424.214 52.4349 424.527 53.442C424.84 54.4491 424.922 55.5137 424.768 56.557V70.549H420.503V57.628C420.503 54.155 418.994 52.428 415.839 52.428C415.125 52.3947 414.412 52.5162 413.75 52.7842C413.087 53.0521 412.49 53.4602 412 53.9804C411.51 54.5006 411.138 55.1207 410.91 55.7981C410.681 56.4755 410.602 57.1942 410.678 57.905V70.549H406.412V48.935Z" fill="white"/>
<path d="M448.871 43.555V49.035H453.559V52.628H448.871V63.741C448.871 66.005 449.804 66.996 451.927 66.996C452.471 66.9938 453.014 66.9604 453.554 66.896V70.451C452.788 70.588 452.012 70.661 451.234 70.669C446.49 70.669 444.601 69 444.601 64.833V52.627H441.17V49.034H444.601V43.555H448.871Z" fill="white"/>
<path d="M459.376 40.498H463.604V52.409H463.941C464.508 51.1643 465.445 50.1247 466.624 49.4318C467.804 48.7389 469.168 48.4265 470.531 48.537C471.577 48.48 472.623 48.6546 473.594 49.0484C474.565 49.4421 475.437 50.0454 476.148 50.815C476.859 51.5847 477.392 52.5018 477.708 53.5009C478.023 54.5 478.115 55.5565 477.975 56.595V70.549H473.705V57.649C473.705 54.197 472.097 52.449 469.083 52.449C468.35 52.3888 467.612 52.4896 466.922 52.7443C466.232 52.9989 465.606 53.4014 465.088 53.9233C464.569 54.4453 464.171 55.0743 463.921 55.7662C463.671 56.4581 463.576 57.1962 463.641 57.929V70.549H459.376V40.498Z" fill="white"/>
<path d="M502.853 64.71C502.274 66.6855 501.018 68.3943 499.306 69.5374C497.593 70.6805 495.534 71.1851 493.487 70.963C492.063 71.001 490.648 70.7286 489.34 70.1649C488.032 69.6011 486.862 68.7595 485.912 67.6983C484.962 66.6371 484.254 65.3819 483.837 64.0197C483.421 62.6576 483.306 61.2211 483.5 59.81C483.31 58.3945 483.427 56.9548 483.842 55.5884C484.258 54.222 484.961 52.9607 485.906 51.89C486.851 50.8193 488.015 49.9641 489.32 49.3823C490.624 48.8005 492.038 48.5058 493.466 48.518C499.48 48.518 503.108 52.627 503.108 59.418V60.906H487.848V61.145C487.781 61.9381 487.881 62.7365 488.141 63.4889C488.4 64.2412 488.815 64.931 489.357 65.514C489.898 66.097 490.556 66.5603 491.288 66.8742C492.019 67.1882 492.808 67.3458 493.604 67.337C494.624 67.4594 495.658 67.2757 496.574 66.8092C497.489 66.3427 498.245 65.6144 498.746 64.717L502.853 64.71ZM487.853 57.744H498.77C498.824 57.0185 498.725 56.2898 498.481 55.6047C498.236 54.9196 497.851 54.2932 497.35 53.7658C496.849 53.2384 496.243 52.8216 495.572 52.5423C494.9 52.263 494.177 52.1273 493.45 52.144C492.712 52.1343 491.979 52.2725 491.296 52.5505C490.612 52.8285 489.991 53.2407 489.469 53.7626C488.947 54.2846 488.535 54.9058 488.257 55.5896C487.979 56.2733 487.84 57.0059 487.85 57.744H487.853Z" fill="white"/>
</g>
<defs>
<clipPath id="clip0_3225_28">
<rect width="574.386" height="192" fill="white"/>
</clipPath>
</defs>
</svg>
