<svg width="575" height="171" viewBox="0 0 575 171" fill="none" xmlns="http://www.w3.org/2000/svg">
<g clip-path="url(#clip0_3225_63)">
<path d="M552 0.0939941H22C9.84974 0.0939941 0 9.94373 0 22.094V148.094C0 160.244 9.84974 170.094 22 170.094H552C564.15 170.094 574 160.244 574 148.094V22.094C574 9.94373 564.15 0.0939941 552 0.0939941Z" fill="black"/>
<path d="M553.112 3.4C557.85 3.40503 562.392 5.28937 565.742 8.63956C569.093 11.9897 570.977 16.5321 570.982 21.27V148.915C570.977 153.653 569.093 158.195 565.742 161.545C562.392 164.896 557.85 166.78 553.112 166.785H21.274C16.5361 166.78 11.9937 164.896 8.64356 161.545C5.29337 158.195 3.40903 153.653 3.404 148.915V21.274C3.40797 16.5354 5.29185 11.992 8.64215 8.64097C11.9924 5.28992 16.5354 3.40503 21.274 3.4H553.112ZM553.112 0H21.274C15.6368 0.0163574 10.2352 2.26297 6.24908 6.24908C2.26297 10.2352 0.0163574 15.6368 0 21.274V148.915C0.0163574 154.552 2.26297 159.954 6.24908 163.94C10.2352 167.926 15.6368 170.173 21.274 170.189H553.112C558.749 170.173 564.151 167.926 568.137 163.94C572.123 159.954 574.37 154.552 574.386 148.915V21.274C574.37 15.6368 572.123 10.2352 568.137 6.24908C564.151 2.26297 558.749 0.0163574 553.112 0Z" fill="#A6A6A6"/>
<path d="M197.449 41.913C197.449 44.913 196.559 47.303 194.779 49.083C192.779 51.203 190.149 52.263 186.889 52.263C183.769 52.263 181.129 51.183 178.969 49.023C176.809 46.863 175.729 44.203 175.729 41.043C175.729 37.883 176.809 35.223 178.969 33.063C181.129 30.903 183.769 29.823 186.889 29.823C188.469 29.823 189.959 30.103 191.359 30.663C192.759 31.223 193.909 32.013 194.809 33.033L192.829 35.013C192.169 34.213 191.309 33.593 190.249 33.153C189.209 32.693 188.089 32.463 186.889 32.463C184.549 32.463 182.569 33.273 180.949 34.893C179.349 36.533 178.549 38.583 178.549 41.043C178.549 43.503 179.349 45.553 180.949 47.193C182.569 48.813 184.549 49.623 186.889 49.623C189.029 49.623 190.809 49.023 192.229 47.823C193.649 46.623 194.469 44.973 194.689 42.873H186.889V40.293H197.299C197.399 40.853 197.449 41.393 197.449 41.913ZM213.342 30.303V32.943H203.562V39.753H212.382V42.333H203.562V49.143H213.342V51.783H200.802V30.303H213.342ZM224.382 32.943V51.783H221.622V32.943H215.622V30.303H230.382V32.943H224.382ZM242.615 51.783H239.855V30.303H242.615V51.783ZM254.265 32.943V51.783H251.505V32.943H245.505V30.303H260.265V32.943H254.265ZM290.182 41.043C290.182 44.223 289.122 46.883 287.002 49.023C284.862 51.183 282.242 52.263 279.142 52.263C276.022 52.263 273.402 51.183 271.282 49.023C269.162 46.883 268.102 44.223 268.102 41.043C268.102 37.863 269.162 35.203 271.282 33.063C273.402 30.903 276.022 29.823 279.142 29.823C282.262 29.823 284.882 30.913 287.002 33.093C289.122 35.233 290.182 37.883 290.182 41.043ZM270.922 41.043C270.922 43.523 271.702 45.573 273.262 47.193C274.842 48.813 276.802 49.623 279.142 49.623C281.482 49.623 283.432 48.813 284.992 47.193C286.572 45.593 287.362 43.543 287.362 41.043C287.362 38.543 286.572 36.493 284.992 34.893C283.432 33.273 281.482 32.463 279.142 32.463C276.802 32.463 274.842 33.273 273.262 34.893C271.702 36.513 270.922 38.563 270.922 41.043ZM296.199 51.783H293.439V30.303H296.799L307.239 47.013H307.359L307.239 42.873V30.303H309.999V51.783H307.119L296.199 34.263H296.079L296.199 38.403V51.783Z" fill="white"/>
<path d="M194.779 49.083L194.708 49.0123L194.706 49.0144L194.779 49.083ZM178.969 49.023L179.04 48.9523L178.969 49.023ZM178.969 33.063L179.04 33.1337L178.969 33.063ZM191.359 30.663L191.322 30.7559L191.359 30.663ZM194.809 33.033L194.88 33.1037L194.946 33.0373L194.884 32.9669L194.809 33.033ZM192.829 35.013L192.752 35.0767L192.822 35.1615L192.9 35.0837L192.829 35.013ZM190.249 33.153L190.209 33.2445L190.211 33.2454L190.249 33.153ZM180.949 34.893L180.878 34.8223L180.877 34.8232L180.949 34.893ZM180.949 47.193L180.877 47.2629L180.878 47.2637L180.949 47.193ZM192.229 47.823L192.164 47.7466L192.229 47.823ZM194.689 42.873L194.788 42.8834L194.8 42.773H194.689V42.873ZM186.889 42.873H186.789V42.973H186.889V42.873ZM186.889 40.293V40.193H186.789V40.293H186.889ZM197.299 40.293L197.397 40.2754L197.383 40.193H197.299V40.293ZM197.349 41.913C197.349 44.892 196.466 47.2546 194.708 49.0123L194.85 49.1537C196.652 47.3514 197.549 44.9341 197.549 41.913H197.349ZM194.706 49.0144C192.728 51.1119 190.125 52.163 186.889 52.163V52.363C190.173 52.363 192.831 51.2941 194.852 49.1516L194.706 49.0144ZM186.889 52.163C183.795 52.163 181.181 51.0931 179.04 48.9523L178.898 49.0937C181.078 51.2729 183.743 52.363 186.889 52.363V52.163ZM179.04 48.9523C176.899 46.8118 175.829 44.1775 175.829 41.043H175.629C175.629 44.2285 176.719 46.9143 178.898 49.0937L179.04 48.9523ZM175.829 41.043C175.829 37.9085 176.899 35.2743 179.04 33.1337L178.898 32.9923C176.719 35.1718 175.629 37.8575 175.629 41.043H175.829ZM179.04 33.1337C181.181 30.9929 183.795 29.923 186.889 29.923V29.723C183.743 29.723 181.078 30.8131 178.898 32.9923L179.04 33.1337ZM186.889 29.923C188.457 29.923 189.934 30.2008 191.322 30.7559L191.396 30.5702C189.984 30.0052 188.481 29.723 186.889 29.723V29.923ZM191.322 30.7559C192.709 31.3107 193.845 32.0921 194.734 33.0992L194.884 32.9669C193.973 31.9339 192.809 31.1353 191.396 30.5702L191.322 30.7559ZM194.738 32.9623L192.758 34.9423L192.9 35.0837L194.88 33.1037L194.738 32.9623ZM192.906 34.9494C192.235 34.1355 191.361 33.5062 190.287 33.0607L190.211 33.2454C191.257 33.6798 192.103 34.2906 192.752 35.0767L192.906 34.9494ZM190.289 33.0616C189.236 32.5956 188.102 32.363 186.889 32.363V32.563C188.076 32.563 189.182 32.7904 190.209 33.2445L190.289 33.0616ZM186.889 32.363C184.523 32.363 182.518 33.1831 180.878 34.8223L181.02 34.9637C182.621 33.3629 184.575 32.563 186.889 32.563V32.363ZM180.877 34.8232C179.258 36.4833 178.449 38.559 178.449 41.043H178.649C178.649 38.607 179.44 36.5827 181.021 34.9629L180.877 34.8232ZM178.449 41.043C178.449 43.527 179.258 45.6027 180.877 47.2629L181.021 47.1232C179.44 45.5033 178.649 43.479 178.649 41.043H178.449ZM180.878 47.2637C182.518 48.9029 184.523 49.723 186.889 49.723V49.523C184.575 49.523 182.621 48.7231 181.02 47.1223L180.878 47.2637ZM186.889 49.723C189.049 49.723 190.853 49.1169 192.294 47.8994L192.164 47.7466C190.765 48.9291 189.009 49.523 186.889 49.523V49.723ZM192.294 47.8994C193.736 46.6804 194.566 45.0053 194.788 42.8834L194.59 42.8626C194.372 44.9407 193.562 46.5656 192.164 47.7466L192.294 47.8994ZM194.689 42.773H186.889V42.973H194.689V42.773ZM186.989 42.873V40.293H186.789V42.873H186.989ZM186.889 40.393H197.299V40.193H186.889V40.393ZM197.201 40.3106C197.3 40.8653 197.349 41.3994 197.349 41.913H197.549C197.549 41.3866 197.498 40.8407 197.397 40.2754L197.201 40.3106ZM213.342 30.303H213.442V30.203H213.342V30.303ZM213.342 32.943V33.043H213.442V32.943H213.342ZM203.562 32.943V32.843H203.462V32.943H203.562ZM203.562 39.753H203.462V39.853H203.562V39.753ZM212.382 39.753H212.482V39.653H212.382V39.753ZM212.382 42.333V42.433H212.482V42.333H212.382ZM203.562 42.333V42.233H203.462V42.333H203.562ZM203.562 49.143H203.462V49.243H203.562V49.143ZM213.342 49.143H213.442V49.043H213.342V49.143ZM213.342 51.783V51.883H213.442V51.783H213.342ZM200.802 51.783H200.702V51.883H200.802V51.783ZM200.802 30.303V30.203H200.702V30.303H200.802ZM213.242 30.303V32.943H213.442V30.303H213.242ZM213.342 32.843H203.562V33.043H213.342V32.843ZM203.462 32.943V39.753H203.662V32.943H203.462ZM203.562 39.853H212.382V39.653H203.562V39.853ZM212.282 39.753V42.333H212.482V39.753H212.282ZM212.382 42.233H203.562V42.433H212.382V42.233ZM203.462 42.333V49.143H203.662V42.333H203.462ZM203.562 49.243H213.342V49.043H203.562V49.243ZM213.242 49.143V51.783H213.442V49.143H213.242ZM213.342 51.683H200.802V51.883H213.342V51.683ZM200.902 51.783V30.303H200.702V51.783H200.902ZM200.802 30.403H213.342V30.203H200.802V30.403ZM224.382 32.943V32.843H224.282V32.943H224.382ZM224.382 51.783V51.883H224.482V51.783H224.382ZM221.622 51.783H221.522V51.883H221.622V51.783ZM221.622 32.943H221.722V32.843H221.622V32.943ZM215.622 32.943H215.522V33.043H215.622V32.943ZM215.622 30.303V30.203H215.522V30.303H215.622ZM230.382 30.303H230.482V30.203H230.382V30.303ZM230.382 32.943V33.043H230.482V32.943H230.382ZM224.282 32.943V51.783H224.482V32.943H224.282ZM224.382 51.683H221.622V51.883H224.382V51.683ZM221.722 51.783V32.943H221.522V51.783H221.722ZM221.622 32.843H215.622V33.043H221.622V32.843ZM215.722 32.943V30.303H215.522V32.943H215.722ZM215.622 30.403H230.382V30.203H215.622V30.403ZM230.282 30.303V32.943H230.482V30.303H230.282ZM230.382 32.843H224.382V33.043H230.382V32.843ZM242.615 51.783V51.883H242.715V51.783H242.615ZM239.855 51.783H239.755V51.883H239.855V51.783ZM239.855 30.303V30.203H239.755V30.303H239.855ZM242.615 30.303H242.715V30.203H242.615V30.303ZM242.615 51.683H239.855V51.883H242.615V51.683ZM239.955 51.783V30.303H239.755V51.783H239.955ZM239.855 30.403H242.615V30.203H239.855V30.403ZM242.515 30.303V51.783H242.715V30.303H242.515ZM254.265 32.943V32.843H254.165V32.943H254.265ZM254.265 51.783V51.883H254.365V51.783H254.265ZM251.505 51.783H251.405V51.883H251.505V51.783ZM251.505 32.943H251.605V32.843H251.505V32.943ZM245.505 32.943H245.405V33.043H245.505V32.943ZM245.505 30.303V30.203H245.405V30.303H245.505ZM260.265 30.303H260.365V30.203H260.265V30.303ZM260.265 32.943V33.043H260.365V32.943H260.265ZM254.165 32.943V51.783H254.365V32.943H254.165ZM254.265 51.683H251.505V51.883H254.265V51.683ZM251.605 51.783V32.943H251.405V51.783H251.605ZM251.505 32.843H245.505V33.043H251.505V32.843ZM245.605 32.943V30.303H245.405V32.943H245.605ZM245.505 30.403H260.265V30.203H245.505V30.403ZM260.165 30.303V32.943H260.365V30.303H260.165ZM260.265 32.843H254.265V33.043H260.265V32.843ZM287.002 49.023L287.073 49.0934L287.073 49.0934L287.002 49.023ZM271.282 49.023L271.353 48.953L271.353 48.9526L271.282 49.023ZM271.282 33.063L271.353 33.1334L271.353 33.1331L271.282 33.063ZM287.002 33.093L286.93 33.1627L286.931 33.1634L287.002 33.093ZM273.262 47.193L273.19 47.2624L273.19 47.2628L273.262 47.193ZM284.992 47.193L284.921 47.1227L284.92 47.1237L284.992 47.193ZM284.992 34.893L284.92 34.9624L284.921 34.9633L284.992 34.893ZM273.262 34.893L273.19 34.8232L273.19 34.8237L273.262 34.893ZM290.082 41.043C290.082 44.1983 289.031 46.8325 286.931 48.9526L287.073 49.0934C289.213 46.9335 290.282 44.2478 290.282 41.043H290.082ZM286.931 48.9526C284.81 51.0933 282.216 52.163 279.142 52.163V52.363C282.268 52.363 284.914 51.2728 287.073 49.0934L286.931 48.9526ZM279.142 52.163C276.048 52.163 273.454 51.0932 271.353 48.953L271.211 49.0931C273.35 51.2729 275.996 52.363 279.142 52.363V52.163ZM271.353 48.9526C269.253 46.8325 268.202 44.1983 268.202 41.043H268.002C268.002 44.2478 269.071 46.9335 271.211 49.0934L271.353 48.9526ZM268.202 41.043C268.202 37.8878 269.253 35.2535 271.353 33.1334L271.211 32.9926C269.071 35.1525 268.002 37.8383 268.002 41.043H268.202ZM271.353 33.1331C273.454 30.9929 276.048 29.923 279.142 29.923V29.723C275.996 29.723 273.35 30.8132 271.211 32.993L271.353 33.1331ZM279.142 29.923C282.236 29.923 284.83 31.0027 286.93 33.1627L287.074 33.0233C284.934 30.8234 282.288 29.723 279.142 29.723V29.923ZM286.931 33.1634C289.031 35.2837 290.082 37.9079 290.082 41.043H290.282C290.282 37.8581 289.213 35.1824 287.073 33.0226L286.931 33.1634ZM270.822 41.043C270.822 43.546 271.61 45.6218 273.19 47.2624L273.334 47.1237C271.794 45.5243 271.022 43.5001 271.022 41.043H270.822ZM273.19 47.2628C274.79 48.9029 276.776 49.723 279.142 49.723V49.523C276.828 49.523 274.894 48.7232 273.334 47.1232L273.19 47.2628ZM279.142 49.723C281.508 49.723 283.484 48.9028 285.064 47.2624L284.92 47.1237C283.38 48.7232 281.456 49.523 279.142 49.523V49.723ZM285.063 47.2633C286.664 45.6424 287.462 43.5661 287.462 41.043H287.262C287.262 43.5199 286.48 45.5436 284.921 47.1228L285.063 47.2633ZM287.462 41.043C287.462 38.5199 286.664 36.4436 285.063 34.8228L284.921 34.9633C286.48 36.5424 287.262 38.5661 287.262 41.043H287.462ZM285.064 34.8237C283.484 33.1832 281.508 32.363 279.142 32.363V32.563C281.456 32.563 283.38 33.3628 284.92 34.9624L285.064 34.8237ZM279.142 32.363C276.776 32.363 274.79 33.1832 273.19 34.8232L273.334 34.9628C274.894 33.3629 276.828 32.563 279.142 32.563V32.363ZM273.19 34.8237C271.61 36.4643 270.822 38.5401 270.822 41.043H271.022C271.022 38.586 271.794 36.5618 273.334 34.9624L273.19 34.8237ZM296.199 51.783V51.883H296.299V51.783H296.199ZM293.439 51.783H293.339V51.883H293.439V51.783ZM293.439 30.303V30.203H293.339V30.303H293.439ZM296.799 30.303L296.884 30.25L296.855 30.203H296.799V30.303ZM307.239 47.013L307.154 47.066L307.184 47.113H307.239V47.013ZM307.359 47.013V47.113H307.462L307.459 47.0101L307.359 47.013ZM307.239 42.873H307.139L307.139 42.8759L307.239 42.873ZM307.239 30.303V30.203H307.139V30.303H307.239ZM309.999 30.303H310.099V30.203H309.999V30.303ZM309.999 51.783V51.883H310.099V51.783H309.999ZM307.119 51.783L307.034 51.8359L307.064 51.883H307.119V51.783ZM296.199 34.263L296.284 34.2101L296.255 34.163H296.199V34.263ZM296.079 34.263V34.163H295.976L295.979 34.2659L296.079 34.263ZM296.199 38.403H296.299L296.299 38.4001L296.199 38.403ZM296.199 51.683H293.439V51.883H296.199V51.683ZM293.539 51.783V30.303H293.339V51.783H293.539ZM293.439 30.403H296.799V30.203H293.439V30.403ZM296.714 30.356L307.154 47.066L307.324 46.96L296.884 30.25L296.714 30.356ZM307.239 47.113H307.359V46.913H307.239V47.113ZM307.459 47.0101L307.339 42.8701L307.139 42.8759L307.259 47.0159L307.459 47.0101ZM307.339 42.873V30.303H307.139V42.873H307.339ZM307.239 30.403H309.999V30.203H307.239V30.403ZM309.899 30.303V51.783H310.099V30.303H309.899ZM309.999 51.683H307.119V51.883H309.999V51.683ZM307.204 51.7301L296.284 34.2101L296.114 34.3159L307.034 51.8359L307.204 51.7301ZM296.199 34.163H296.079V34.363H296.199V34.163ZM295.979 34.2659L296.099 38.4059L296.299 38.4001L296.179 34.2601L295.979 34.2659ZM296.099 38.403V51.783H296.299V38.403H296.099Z" fill="white"/>
<path d="M289.899 92.548C286.322 92.5605 282.829 93.6326 279.86 95.629C276.892 97.6254 274.582 100.457 273.222 103.765C271.861 107.073 271.512 110.711 272.217 114.218C272.923 117.725 274.652 120.944 277.186 123.469C279.719 125.994 282.945 127.711 286.454 128.405C289.963 129.098 293.599 128.736 296.903 127.364C300.207 125.992 303.03 123.672 305.016 120.697C307.002 117.722 308.062 114.225 308.062 110.648C308.098 108.256 307.652 105.881 306.751 103.664C305.851 101.448 304.513 99.4356 302.818 97.7468C301.124 96.058 299.107 94.7275 296.887 93.8343C294.668 92.9412 292.291 92.5037 289.899 92.548ZM289.899 121.608C284.415 121.608 279.683 117.085 279.683 110.644C279.683 104.13 284.414 99.675 289.899 99.675C295.384 99.675 300.11 104.13 300.11 110.644C300.11 117.083 295.38 121.608 289.899 121.608ZM250.275 92.548C246.698 92.5605 243.205 93.6326 240.236 95.629C237.268 97.6254 234.958 100.457 233.598 103.765C232.237 107.073 231.888 110.711 232.593 114.218C233.299 117.725 235.028 120.944 237.562 123.469C240.095 125.994 243.321 127.711 246.83 128.405C250.339 129.098 253.975 128.736 257.279 127.364C260.583 125.992 263.406 123.672 265.392 120.697C267.378 117.722 268.438 114.225 268.438 110.648C268.474 108.256 268.028 105.881 267.127 103.665C266.226 101.448 264.889 99.4359 263.194 97.7471C261.499 96.0584 259.482 94.7278 257.263 93.8346C255.043 92.9414 252.667 92.5039 250.275 92.548ZM250.275 121.608C244.791 121.608 240.059 117.085 240.059 110.644C240.059 104.13 244.79 99.675 250.275 99.675C255.76 99.675 260.486 104.13 260.486 110.644C260.486 117.083 255.755 121.608 250.275 121.608ZM203.137 98.101V105.776H221.505C220.956 110.095 219.518 113.247 217.327 115.438C214.651 118.114 210.473 121.063 203.138 121.063C197.77 120.988 192.647 118.803 188.878 114.98C185.108 111.157 182.995 106.005 182.995 100.636C182.995 95.2674 185.108 90.1146 188.878 86.292C192.647 82.4693 197.77 80.2841 203.138 80.209C208.294 80.1423 213.269 82.1134 216.98 85.694L222.396 80.278C219.863 77.7698 216.854 75.7924 213.547 74.462C210.239 73.1315 206.7 72.4747 203.135 72.53C187.644 72.53 174.62 85.145 174.62 100.637C174.62 116.129 187.644 128.737 203.135 128.737C211.495 128.737 217.801 125.993 222.735 120.853C227.807 115.781 229.385 108.653 229.385 102.894C229.403 101.284 229.265 99.6768 228.972 98.094L203.137 98.101ZM395.909 104.062C394.403 100.02 389.809 92.549 380.418 92.549C371.096 92.549 363.352 99.88 363.352 110.649C363.299 113.028 363.726 115.394 364.608 117.604C365.489 119.815 366.808 121.825 368.484 123.514C370.16 125.204 372.159 126.538 374.362 127.437C376.565 128.337 378.927 128.783 381.307 128.749C384.289 128.766 387.228 128.042 389.861 126.642C392.493 125.242 394.737 123.21 396.39 120.729L390.221 116.615C388.166 119.632 385.354 121.615 381.307 121.615C379.464 121.685 377.643 121.2 376.078 120.223C374.514 119.246 373.279 117.822 372.534 116.135L396.734 106.124L395.909 104.062ZM371.232 110.095C371.147 108.778 371.326 107.457 371.757 106.21C372.189 104.963 372.865 103.815 373.745 102.832C374.626 101.849 375.694 101.051 376.886 100.486C378.079 99.9207 379.372 99.5988 380.69 99.539C383.847 99.539 386.519 101.113 387.408 103.377L371.232 110.095ZM351.562 127.641H359.51V74.449H351.562V127.641ZM338.539 96.59H338.262C337.053 95.2774 335.578 94.2378 333.935 93.5408C332.293 92.8437 330.52 92.5053 328.736 92.548C319.686 92.548 311.394 100.496 311.394 110.711C311.394 120.854 319.686 128.738 328.736 128.738C330.527 128.786 332.308 128.443 333.953 127.732C335.598 127.022 337.069 125.961 338.262 124.624H338.539V127.224C338.539 134.151 334.839 137.852 328.872 137.852C326.884 137.804 324.955 137.166 323.331 136.018C321.707 134.87 320.462 133.264 319.754 131.406L312.832 134.286C314.136 137.464 316.359 140.18 319.217 142.086C322.075 143.992 325.437 145.001 328.872 144.983C338.194 144.983 346.078 139.499 346.078 126.135V93.642H338.539V96.59ZM329.421 121.608C323.937 121.608 319.346 117.017 319.346 110.708C319.346 104.334 323.937 99.671 329.421 99.671C334.837 99.671 339.083 104.334 339.083 110.708C339.08 117.017 334.837 121.608 329.421 121.608ZM433.155 74.453H414.132V127.641H422.067V107.491H433.155C441.955 107.491 450.604 101.117 450.604 90.97C450.604 80.823 441.954 74.453 433.155 74.453ZM433.355 100.088H422.067V81.856H433.359C434.574 81.8276 435.783 82.0423 436.913 82.4876C438.044 82.9329 439.075 83.5998 439.944 84.4491C440.813 85.2983 441.504 86.3128 441.976 87.433C442.448 88.5531 442.69 89.7562 442.69 90.9715C442.69 92.1869 442.448 93.39 441.976 94.5101C441.504 95.6302 440.813 96.6447 439.944 97.494C439.075 98.3432 438.044 99.0101 436.913 99.4554C435.783 99.9007 434.574 100.115 433.359 100.087L433.355 100.088ZM482.42 92.451C476.672 92.451 470.72 94.983 468.256 100.59L475.302 103.534C476.808 100.59 479.612 99.634 482.556 99.634C486.662 99.634 490.836 102.097 490.904 106.48V107.025C488.355 105.671 485.511 104.967 482.624 104.974C475.029 104.974 467.294 109.148 467.294 116.947C467.294 124.065 473.523 128.647 480.501 128.647C485.841 128.647 488.781 126.247 490.631 123.447H490.903V127.553H498.566V107.159C498.571 97.718 491.525 92.451 482.425 92.451H482.42ZM481.463 121.6C478.863 121.6 475.234 120.3 475.234 117.086C475.234 112.98 479.753 111.406 483.65 111.406C486.184 111.338 488.689 111.952 490.904 113.184C490.612 115.49 489.496 117.612 487.762 119.159C486.027 120.706 483.791 121.573 481.467 121.6H481.463ZM526.486 93.613L517.386 116.674H517.114L507.669 93.613H499.12L513.28 125.841L505.205 143.77H513.489L535.316 93.611L526.486 93.613ZM454.98 127.641H462.919V74.453H454.98V127.641Z" fill="white"/>
<path d="M88.145 82.644L42.849 130.72V130.75C43.3389 132.57 44.2424 134.253 45.4892 135.667C46.7359 137.081 48.2921 138.188 50.0368 138.903C51.7814 139.617 53.6674 139.919 55.5478 139.785C57.4282 139.651 59.2522 139.084 60.878 138.13L61.023 138.045L112.009 108.627L88.145 82.644Z" fill="#EA4335"/>
<path d="M133.972 74.458L133.929 74.428L111.915 61.664L87.115 83.737L112.005 108.619L133.9 95.987C135.842 94.9427 137.466 93.3933 138.601 91.5023C139.735 89.6114 140.338 87.4491 140.346 85.2439C140.353 83.0388 139.765 80.8725 138.643 78.974C137.521 77.0755 135.907 75.5153 133.972 74.458Z" fill="#FBBC04"/>
<path d="M42.845 39.471C42.5686 40.4974 42.4298 41.556 42.432 42.619V127.577C42.4287 128.639 42.5689 129.697 42.849 130.721L89.702 83.873L42.845 39.471Z" fill="#4285F4"/>
<path d="M88.481 85.099L111.924 61.659L60.996 32.132C59.3696 31.1556 57.5388 30.57 55.6477 30.4213C53.7565 30.2726 51.8567 30.5648 50.0977 31.2751C48.3387 31.9853 46.7686 33.0942 45.5109 34.5143C44.2533 35.9344 43.3424 37.6271 42.85 39.459V39.472L88.481 85.099Z" fill="#34A853"/>
</g>
<defs>
<clipPath id="clip0_3225_63">
<rect width="574.385" height="170.188" fill="white"/>
</clipPath>
</defs>
</svg>
